<mxfile host="65bd71144e">
    <diagram id="Z3KH5_XjGhMpDvTEtEw1" name="Page-1">
        <mxGraphModel dx="2288" dy="1053" grid="1" gridSize="10" guides="1" tooltips="1" connect="1" arrows="1" fold="1" page="1" pageScale="1" pageWidth="1100" pageHeight="850" math="0" shadow="0">
            <root>
                <mxCell id="0"/>
                <mxCell id="1" parent="0"/>
                <mxCell id="2" value="&lt;div style=&quot;color: rgb(51 , 51 , 51) ; background-color: rgb(245 , 245 , 245) ; font-size: 14px ; line-height: 19px&quot;&gt;&lt;div&gt;&amp;nbsp; &amp;nbsp; &amp;nbsp; &amp;nbsp; &amp;nbsp; &amp;nbsp; &amp;nbsp; &amp;nbsp; &amp;nbsp; &amp;nbsp; &amp;nbsp; &amp;nbsp; &amp;nbsp;&lt;/div&gt;&lt;div&gt;&lt;span style=&quot;color: #7a3e9d ; font-weight: bold&quot;&gt;&amp;nbsp; &amp;nbsp; local&lt;/span&gt;&lt;span style=&quot;color: #777777&quot;&gt;.get&lt;/span&gt;&amp;nbsp;&lt;span style=&quot;color: rgb(156 , 93 , 39)&quot;&gt;0&lt;/span&gt;&lt;/div&gt;&lt;div&gt;&amp;nbsp; &amp;nbsp; &lt;span style=&quot;color: #7a3e9d ; font-weight: bold&quot;&gt;i32&lt;/span&gt;&lt;span style=&quot;color: #777777&quot;&gt;.const&lt;/span&gt; &lt;span style=&quot;color: #9c5d27&quot;&gt;1&lt;/span&gt;&lt;/div&gt;&lt;div&gt;&amp;nbsp; &amp;nbsp; &lt;span style=&quot;color: #7a3e9d ; font-weight: bold&quot;&gt;i32&lt;/span&gt;&lt;span style=&quot;color: #777777&quot;&gt;.add&lt;/span&gt;&lt;/div&gt;&lt;div&gt;&amp;nbsp; &amp;nbsp; &lt;span style=&quot;color: #7a3e9d ; font-weight: bold&quot;&gt;local&lt;/span&gt;&lt;span style=&quot;color: #777777&quot;&gt;.set&lt;/span&gt;&amp;nbsp;&lt;span style=&quot;color: rgb(156 , 93 , 39)&quot;&gt;0&lt;/span&gt;&lt;/div&gt;&lt;div&gt;&amp;nbsp; &amp;nbsp; &lt;span style=&quot;color: #7a3e9d ; font-weight: bold&quot;&gt;local&lt;/span&gt;&lt;span style=&quot;color: #777777&quot;&gt;.get&lt;/span&gt;&amp;nbsp;&lt;span style=&quot;color: rgb(156 , 93 , 39)&quot;&gt;0&lt;/span&gt;&lt;/div&gt;&lt;div&gt;&amp;nbsp; &amp;nbsp; &lt;span style=&quot;color: #4b69c6&quot;&gt;call&lt;/span&gt; &lt;span style=&quot;color: #aa3731 ; font-weight: bold&quot;&gt;$log&lt;/span&gt;&lt;/div&gt;&lt;br&gt;&lt;div&gt;&amp;nbsp; &amp;nbsp; &lt;span style=&quot;color: #4b69c6&quot;&gt;block&lt;/span&gt;&lt;/div&gt;&lt;div&gt;&amp;nbsp; &amp;nbsp; &amp;nbsp; &lt;span style=&quot;color: #7a3e9d ; font-weight: bold&quot;&gt;local&lt;/span&gt;&lt;span style=&quot;color: #777777&quot;&gt;.get&lt;/span&gt;&amp;nbsp;&lt;span style=&quot;color: rgb(156 , 93 , 39)&quot;&gt;0&lt;/span&gt;&lt;/div&gt;&lt;div&gt;&amp;nbsp; &amp;nbsp; &amp;nbsp; &lt;span style=&quot;color: #7a3e9d ; font-weight: bold&quot;&gt;i32&lt;/span&gt;&lt;span style=&quot;color: #777777&quot;&gt;.const&lt;/span&gt; &lt;span style=&quot;color: #9c5d27&quot;&gt;1&lt;/span&gt;&lt;/div&gt;&lt;div&gt;&amp;nbsp; &amp;nbsp; &amp;nbsp; &lt;span style=&quot;color: #7a3e9d ; font-weight: bold&quot;&gt;i32&lt;/span&gt;&lt;span style=&quot;color: #777777&quot;&gt;.eq&lt;/span&gt;&lt;/div&gt;&lt;div&gt;&amp;nbsp; &amp;nbsp; &amp;nbsp; &lt;span style=&quot;color: #4b69c6&quot;&gt;br_if&lt;/span&gt; &lt;span style=&quot;color: #9c5d27&quot;&gt;0&lt;/span&gt;&lt;/div&gt;&lt;div&gt;&amp;nbsp; &amp;nbsp; &amp;nbsp; &lt;span style=&quot;color: #7a3e9d ; font-weight: bold&quot;&gt;local&lt;/span&gt;&lt;span style=&quot;color: #777777&quot;&gt;.get&lt;/span&gt;&amp;nbsp;&lt;span style=&quot;color: rgb(156 , 93 , 39)&quot;&gt;0&lt;/span&gt;&lt;/div&gt;&lt;div&gt;&amp;nbsp; &amp;nbsp; &amp;nbsp; &lt;span style=&quot;color: #7a3e9d ; font-weight: bold&quot;&gt;i32&lt;/span&gt;&lt;span style=&quot;color: #777777&quot;&gt;.const&lt;/span&gt; &lt;span style=&quot;color: #9c5d27&quot;&gt;1&lt;/span&gt;&lt;/div&gt;&lt;div&gt;&amp;nbsp; &amp;nbsp; &amp;nbsp; &lt;span style=&quot;color: #7a3e9d ; font-weight: bold&quot;&gt;i32&lt;/span&gt;&lt;span style=&quot;color: #777777&quot;&gt;.add&lt;/span&gt;&lt;/div&gt;&lt;div&gt;&amp;nbsp; &amp;nbsp; &amp;nbsp; &lt;span style=&quot;color: #7a3e9d ; font-weight: bold&quot;&gt;local&lt;/span&gt;&lt;span style=&quot;color: #777777&quot;&gt;.set&lt;/span&gt;&amp;nbsp;&lt;span style=&quot;color: rgb(156 , 93 , 39)&quot;&gt;0&lt;/span&gt;&lt;/div&gt;&lt;div&gt;&amp;nbsp; &amp;nbsp; &amp;nbsp; &lt;span style=&quot;color: #7a3e9d ; font-weight: bold&quot;&gt;local&lt;/span&gt;&lt;span style=&quot;color: #777777&quot;&gt;.get&lt;/span&gt;&amp;nbsp;&lt;span style=&quot;color: rgb(156 , 93 , 39)&quot;&gt;0&lt;/span&gt;&lt;/div&gt;&lt;div&gt;&amp;nbsp; &amp;nbsp; &amp;nbsp; &lt;span style=&quot;color: #4b69c6&quot;&gt;call&lt;/span&gt; &lt;span style=&quot;color: #aa3731 ; font-weight: bold&quot;&gt;$log&lt;/span&gt;&lt;/div&gt;&lt;div&gt;&amp;nbsp; &amp;nbsp; &lt;span style=&quot;color: #4b69c6&quot;&gt;end&lt;/span&gt;&lt;/div&gt;&lt;br&gt;&lt;div&gt;&amp;nbsp; &amp;nbsp; &lt;span style=&quot;color: #7a3e9d ; font-weight: bold&quot;&gt;local&lt;/span&gt;&lt;span style=&quot;color: #777777&quot;&gt;.get&lt;/span&gt;&amp;nbsp;&lt;span style=&quot;color: rgb(156 , 93 , 39)&quot;&gt;0&lt;/span&gt;&lt;/div&gt;&lt;div&gt;&amp;nbsp; &amp;nbsp; &lt;span style=&quot;color: #7a3e9d ; font-weight: bold&quot;&gt;i32&lt;/span&gt;&lt;span style=&quot;color: #777777&quot;&gt;.const&lt;/span&gt; &lt;span style=&quot;color: #9c5d27&quot;&gt;1&lt;/span&gt;&lt;/div&gt;&lt;div&gt;&amp;nbsp; &amp;nbsp; &lt;span style=&quot;color: #7a3e9d ; font-weight: bold&quot;&gt;i32&lt;/span&gt;&lt;span style=&quot;color: #777777&quot;&gt;.add&lt;/span&gt;&lt;/div&gt;&lt;div&gt;&amp;nbsp; &amp;nbsp; &lt;span style=&quot;color: #7a3e9d ; font-weight: bold&quot;&gt;local&lt;/span&gt;&lt;span style=&quot;color: #777777&quot;&gt;.set&lt;/span&gt;&amp;nbsp;&lt;span style=&quot;color: rgb(156 , 93 , 39)&quot;&gt;0&lt;/span&gt;&lt;/div&gt;&lt;div&gt;&amp;nbsp; &amp;nbsp; &lt;span style=&quot;color: #7a3e9d ; font-weight: bold&quot;&gt;local&lt;/span&gt;&lt;span style=&quot;color: #777777&quot;&gt;.get&lt;/span&gt;&amp;nbsp;&lt;span style=&quot;color: rgb(156 , 93 , 39)&quot;&gt;0&lt;/span&gt;&lt;/div&gt;&lt;div&gt;&amp;nbsp; &amp;nbsp; &lt;span style=&quot;color: #4b69c6&quot;&gt;call&lt;/span&gt; &lt;span style=&quot;color: #aa3731 ; font-weight: bold&quot;&gt;$log&lt;/span&gt;&lt;/div&gt;&lt;/div&gt;" style="text;html=1;strokeColor=none;fillColor=none;align=left;verticalAlign=middle;whiteSpace=wrap;rounded=0;fontFamily=Lucida Console;" vertex="1" parent="1">
                    <mxGeometry x="435" y="150" width="230" height="550" as="geometry"/>
                </mxCell>
                <mxCell id="3" value="" style="endArrow=classic;html=1;fontFamily=Lucida Console;strokeWidth=3;strokeColor=#808080;" edge="1" parent="1">
                    <mxGeometry width="50" height="50" relative="1" as="geometry">
                        <mxPoint x="400" y="250" as="sourcePoint"/>
                        <mxPoint x="400" y="600" as="targetPoint"/>
                    </mxGeometry>
                </mxCell>
                <mxCell id="4" value="Analysis&lt;br&gt;Flow" style="text;html=1;strokeColor=none;fillColor=none;align=center;verticalAlign=middle;whiteSpace=wrap;rounded=0;fontFamily=Lucida Console;fontColor=#808080;fontStyle=1" vertex="1" parent="1">
                    <mxGeometry x="330" y="410" width="60" height="30" as="geometry"/>
                </mxCell>
                <mxCell id="9" style="edgeStyle=orthogonalEdgeStyle;html=1;exitX=1;exitY=1;exitDx=0;exitDy=0;entryX=1;entryY=0;entryDx=0;entryDy=0;fontFamily=Lucida Console;strokeColor=#808080;strokeWidth=2;" edge="1" parent="1" source="5" target="6">
                    <mxGeometry relative="1" as="geometry">
                        <Array as="points">
                            <mxPoint x="690" y="300"/>
                            <mxPoint x="690" y="337"/>
                        </Array>
                    </mxGeometry>
                </mxCell>
                <mxCell id="5" value="" style="rounded=0;whiteSpace=wrap;html=1;fontFamily=Lucida Console;fillColor=none;strokeColor=#6666FF;strokeWidth=2;" vertex="1" parent="1">
                    <mxGeometry x="435" y="180" width="205" height="120" as="geometry"/>
                </mxCell>
                <mxCell id="10" style="edgeStyle=orthogonalEdgeStyle;html=1;exitX=1;exitY=1;exitDx=0;exitDy=0;fontFamily=Lucida Console;strokeColor=#808080;strokeWidth=2;" edge="1" parent="1" source="6">
                    <mxGeometry relative="1" as="geometry">
                        <mxPoint x="640" y="425" as="targetPoint"/>
                        <Array as="points">
                            <mxPoint x="690" y="417"/>
                            <mxPoint x="690" y="425"/>
                        </Array>
                    </mxGeometry>
                </mxCell>
                <mxCell id="11" style="edgeStyle=orthogonalEdgeStyle;html=1;exitX=1;exitY=1;exitDx=0;exitDy=0;fontFamily=Lucida Console;strokeColor=#808080;strokeWidth=2;" edge="1" parent="1" source="6">
                    <mxGeometry relative="1" as="geometry">
                        <mxPoint x="710" y="490" as="targetPoint"/>
                        <Array as="points">
                            <mxPoint x="710" y="417"/>
                        </Array>
                    </mxGeometry>
                </mxCell>
                <mxCell id="6" value="" style="rounded=0;whiteSpace=wrap;html=1;fontFamily=Lucida Console;fillColor=none;strokeColor=#6666FF;strokeWidth=2;" vertex="1" parent="1">
                    <mxGeometry x="435" y="337" width="205" height="80" as="geometry"/>
                </mxCell>
                <mxCell id="12" value="&lt;font style=&quot;font-size: 22px;&quot;&gt;?&lt;/font&gt;" style="text;html=1;strokeColor=none;fillColor=none;align=center;verticalAlign=middle;whiteSpace=wrap;rounded=0;fontFamily=Lucida Console;fontColor=#808080;fontStyle=1;fontSize=22;" vertex="1" parent="1">
                    <mxGeometry x="680" y="493" width="60" height="30" as="geometry"/>
                </mxCell>
            </root>
        </mxGraphModel>
    </diagram>
</mxfile>